<svg width="190" height="190" viewBox="0 0 190 190" fill="none" xmlns="http://www.w3.org/2000/svg">
<path d="M190 185.359C190 187.911 187.911 190 185.359 190H4.64136C2.08861 190 0 187.911 0 185.359V4.64137C0 2.08862 2.08861 0 4.64136 0H185.358C187.911 0 190 2.08862 190 4.64137" fill="#FC7E17"/>
<path d="M98 84C118.435 84 135 67.4345 135 47C135 26.5655 118.435 10 98 10C77.5655 10 61 26.5655 61 47C61 67.4345 77.5655 84 98 84Z" fill="#FFC033"/>
<path d="M172.319 190V124.449C172.319 124.284 172.351 124.121 172.414 123.969C172.477 123.818 172.57 123.68 172.686 123.563C172.802 123.447 172.941 123.355 173.093 123.292C173.245 123.229 173.408 123.197 173.573 123.197H190V185.365C190 187.914 187.911 190 185.359 190H172.319V190ZM20.7009 100.717H0V185.365C0 187.914 2.08861 190 4.64136 190H21.9548V101.97C21.9549 101.805 21.9225 101.642 21.8595 101.49C21.7965 101.338 21.7041 101.2 21.5876 101.084C21.4712 100.968 21.3329 100.876 21.1808 100.813C21.0286 100.75 20.8656 100.717 20.7009 100.717V100.717ZM162.932 75H109.604C109.176 75 108.765 75.1699 108.462 75.4724C108.159 75.7748 107.989 76.1851 107.989 76.6128V190H164.546V76.6128C164.546 76.4011 164.505 76.1914 164.424 75.9957C164.343 75.8 164.224 75.6222 164.074 75.4724C163.924 75.3227 163.746 75.2038 163.55 75.1228C163.354 75.0417 163.144 75 162.932 75V75ZM86.4848 116.725H52.5062C52.2332 116.725 51.9714 116.833 51.7784 117.026C51.5854 117.219 51.477 117.48 51.477 117.753V190H87.5137V117.752C87.5137 117.48 87.4053 117.219 87.2123 117.026C87.0194 116.833 86.7577 116.725 86.4848 116.725Z" fill="#D1552A"/>
<path d="M128.352 91.4023V190H79V91.4023C78.9999 91.2181 79.0364 91.0358 79.1072 90.8656C79.178 90.6954 79.2818 90.5408 79.4127 90.4106C79.5435 90.2804 79.6989 90.1771 79.8699 90.1066C80.0409 90.0362 80.2242 89.9999 80.4093 90H126.943C127.128 89.9999 127.311 90.0362 127.482 90.1066C127.653 90.1771 127.809 90.2804 127.939 90.4106C128.07 90.5408 128.174 90.6954 128.245 90.8656C128.316 91.0358 128.352 91.2181 128.352 91.4023V91.4023ZM181.142 139.104H140.192C140.056 139.104 139.922 139.136 139.8 139.198C139.679 139.26 139.575 139.35 139.495 139.46C139.416 139.57 139.364 139.697 139.344 139.831C139.323 139.965 139.335 140.102 139.379 140.23L140.919 144.784C140.966 144.922 141.046 145.041 141.148 145.135C141.128 145.21 141.117 145.288 141.116 145.365V190H180.218V145.365C180.218 145.286 180.205 145.209 180.186 145.135C180.288 145.041 180.368 144.922 180.415 144.784L181.955 140.23C181.999 140.102 182.011 139.965 181.99 139.831C181.97 139.697 181.918 139.57 181.839 139.46C181.759 139.35 181.655 139.26 181.534 139.198C181.413 139.137 181.278 139.104 181.142 139.104Z" fill="#2B3B47"/>
<path d="M70.2976 84.7248C70.749 84.7248 71.1819 84.5489 71.5011 84.2358C71.8203 83.9228 71.9996 83.4982 71.9996 83.0555V79.018C71.9996 78.5753 71.8203 78.1507 71.5011 77.8376C71.1819 77.5245 70.749 77.3487 70.2976 77.3487H58.3134V71.4874C59.6474 71.0054 60.6007 69.7514 60.6007 68.2759V61.4253C60.6007 60.9755 60.5104 60.53 60.3349 60.1144C60.1595 59.6988 59.9022 59.3212 59.5779 59.0031C59.2536 58.6851 58.8686 58.4328 58.4449 58.2606C58.0211 58.0885 57.567 57.9999 57.1083 58H25.8913C25.4326 57.9999 24.9785 58.0885 24.5548 58.2606C24.131 58.4328 23.746 58.6851 23.4217 59.0031C23.0974 59.3212 22.8402 59.6988 22.6647 60.1144C22.4892 60.53 22.3989 60.9755 22.3989 61.4253V68.2759C22.3989 69.7514 23.3522 71.0054 24.6862 71.4874V77.3487H12.702C12.2506 77.3487 11.8177 77.5245 11.4985 77.8376C11.1793 78.1507 11 78.5753 11 79.018V83.0555C11 83.4982 11.1793 83.9228 11.4985 84.2358C11.8177 84.5489 12.2506 84.7248 12.702 84.7248H13.5068V110.411H12.702C12.4785 110.411 12.2572 110.454 12.0507 110.538C11.8442 110.622 11.6565 110.745 11.4985 110.9C11.3405 111.055 11.2151 111.239 11.1296 111.442C11.044 111.644 11 111.861 11 112.081V116.118C11 116.561 11.1793 116.985 11.4985 117.298C11.8177 117.611 12.2506 117.787 12.702 117.787H13.5068V164.205H12.702C12.2506 164.205 11.8177 164.381 11.4985 164.694C11.1793 165.007 11 165.431 11 165.874V169.912C11 170.354 11.1793 170.779 11.4985 171.092C11.8177 171.405 12.2506 171.581 12.702 171.581H13.5068V190H69.9111V171.581H70.298C70.7494 171.581 71.1823 171.405 71.5015 171.092C71.8207 170.779 72 170.354 72 169.912V165.874C72 165.431 71.8207 165.007 71.5015 164.694C71.1823 164.381 70.7494 164.205 70.298 164.205H69.9111V117.788H70.298C70.7494 117.788 71.1823 117.612 71.5015 117.299C71.8207 116.986 72 116.561 72 116.118V112.081C72 111.862 71.956 111.645 71.8704 111.442C71.7849 111.24 71.6595 111.056 71.5015 110.901C71.3435 110.746 71.1558 110.623 70.9493 110.539C70.7428 110.455 70.5215 110.412 70.298 110.412H69.9111V84.7252H70.2976V84.7248ZM55.2437 77.3487H27.7559V71.7012H55.2437V77.3487Z" fill="#2B3B47"/>
<path d="M89.6187 117.534H85.9503C85.6806 117.534 85.4219 117.427 85.2311 117.236C85.0404 117.044 84.9332 116.785 84.9332 116.514V105.22C84.9332 105.086 84.9595 104.954 85.0106 104.83C85.0618 104.706 85.1367 104.594 85.2311 104.499C85.3256 104.404 85.4377 104.329 85.5611 104.278C85.6845 104.227 85.8168 104.2 85.9503 104.2H89.6187C89.7522 104.2 89.8845 104.227 90.0079 104.278C90.1313 104.329 90.2434 104.404 90.3379 104.499C90.4323 104.594 90.5072 104.706 90.5584 104.83C90.6095 104.954 90.6358 105.086 90.6358 105.22V116.514C90.6357 116.785 90.5285 117.044 90.3378 117.235C90.147 117.427 89.8884 117.534 89.6187 117.534V117.534ZM101.377 116.514V105.22C101.377 105.086 101.35 104.954 101.299 104.83C101.248 104.706 101.173 104.594 101.079 104.499C100.984 104.404 100.872 104.329 100.749 104.278C100.625 104.227 100.493 104.2 100.359 104.2H96.6911C96.5575 104.2 96.4252 104.227 96.3018 104.278C96.1784 104.329 96.0663 104.404 95.9719 104.499C95.8774 104.594 95.8025 104.706 95.7514 104.83C95.7003 104.954 95.674 105.086 95.674 105.22V116.514C95.674 116.785 95.7811 117.044 95.9719 117.236C96.1626 117.427 96.4213 117.534 96.6911 117.534H100.359C100.629 117.534 100.888 117.427 101.079 117.236C101.269 117.044 101.377 116.785 101.377 116.514V116.514ZM112.118 116.514V105.22C112.118 105.086 112.091 104.954 112.04 104.83C111.989 104.706 111.914 104.594 111.82 104.499C111.725 104.404 111.613 104.329 111.49 104.278C111.366 104.227 111.234 104.2 111.101 104.2H107.432C107.299 104.2 107.166 104.227 107.043 104.278C106.92 104.329 106.807 104.404 106.713 104.499C106.619 104.594 106.544 104.706 106.493 104.83C106.441 104.954 106.415 105.086 106.415 105.22V116.514C106.415 116.648 106.441 116.781 106.493 116.905C106.544 117.028 106.619 117.141 106.713 117.236C106.807 117.33 106.92 117.405 107.043 117.457C107.166 117.508 107.299 117.534 107.432 117.534H111.101C111.37 117.534 111.629 117.427 111.82 117.236C112.01 117.044 112.118 116.785 112.118 116.514ZM122.859 116.514V105.22C122.859 105.086 122.832 104.954 122.781 104.83C122.73 104.706 122.655 104.594 122.561 104.499C122.466 104.404 122.354 104.329 122.231 104.278C122.108 104.227 121.975 104.2 121.842 104.2H118.173C118.04 104.2 117.907 104.227 117.784 104.278C117.661 104.329 117.549 104.404 117.454 104.499C117.36 104.594 117.285 104.706 117.234 104.83C117.183 104.954 117.156 105.086 117.156 105.22V116.514C117.156 116.785 117.263 117.044 117.454 117.236C117.645 117.427 117.904 117.534 118.173 117.534H121.842C121.975 117.534 122.108 117.508 122.231 117.457C122.354 117.405 122.466 117.33 122.561 117.236C122.655 117.141 122.73 117.028 122.781 116.905C122.832 116.781 122.859 116.648 122.859 116.514ZM90.6354 137.495V126.201C90.6354 125.931 90.5282 125.671 90.3375 125.48C90.1467 125.289 89.888 125.181 89.6183 125.181H85.9499C85.6802 125.181 85.4215 125.289 85.2307 125.48C85.04 125.671 84.9328 125.931 84.9328 126.201V137.495C84.9328 137.766 85.04 138.025 85.2307 138.217C85.4215 138.408 85.6802 138.515 85.9499 138.515H89.6183C89.888 138.515 90.1467 138.408 90.3375 138.217C90.5282 138.025 90.6354 137.766 90.6354 137.495V137.495ZM101.377 137.495V126.201C101.377 125.931 101.269 125.671 101.079 125.48C100.888 125.289 100.629 125.181 100.359 125.181H96.6911C96.4213 125.181 96.1626 125.289 95.9719 125.48C95.7811 125.671 95.674 125.931 95.674 126.201V137.495C95.674 137.766 95.7811 138.025 95.9719 138.217C96.1626 138.408 96.4213 138.515 96.6911 138.515H100.359C100.629 138.515 100.888 138.408 101.079 138.217C101.269 138.025 101.377 137.766 101.377 137.495V137.495ZM112.118 137.495V126.201C112.118 126.067 112.091 125.935 112.04 125.811C111.989 125.687 111.914 125.575 111.82 125.48C111.725 125.385 111.613 125.31 111.49 125.259C111.366 125.208 111.234 125.181 111.101 125.181H107.432C107.162 125.181 106.904 125.289 106.713 125.48C106.522 125.671 106.415 125.931 106.415 126.201V137.495C106.415 137.766 106.522 138.025 106.713 138.217C106.904 138.408 107.162 138.515 107.432 138.515H111.101C111.37 138.515 111.629 138.408 111.82 138.217C112.01 138.025 112.118 137.766 112.118 137.495V137.495ZM122.859 137.495V126.201C122.859 125.931 122.752 125.671 122.561 125.48C122.37 125.289 122.111 125.181 121.842 125.181H118.173C117.904 125.181 117.645 125.289 117.454 125.48C117.263 125.671 117.156 125.931 117.156 126.201V137.495C117.156 137.766 117.263 138.025 117.454 138.217C117.645 138.408 117.904 138.515 118.173 138.515H121.842C122.111 138.515 122.37 138.408 122.561 138.217C122.751 138.025 122.859 137.766 122.859 137.495V137.495ZM90.6354 157.999V146.705C90.6354 146.435 90.5282 146.175 90.3375 145.984C90.1467 145.793 89.888 145.685 89.6183 145.685H85.9499C85.6802 145.685 85.4215 145.793 85.2307 145.984C85.04 146.175 84.9328 146.435 84.9328 146.705V157.999C84.9328 158.27 85.04 158.529 85.2307 158.72C85.4215 158.912 85.6802 159.019 85.9499 159.019H89.6183C89.888 159.019 90.1467 158.912 90.3375 158.72C90.5282 158.529 90.6354 158.27 90.6354 157.999ZM101.377 157.999V146.705C101.377 146.435 101.269 146.175 101.079 145.984C100.888 145.793 100.629 145.685 100.359 145.685H96.6911C96.5575 145.685 96.4252 145.711 96.3018 145.763C96.1784 145.814 96.0663 145.889 95.9719 145.984C95.8774 146.079 95.8025 146.191 95.7514 146.315C95.7003 146.439 95.674 146.571 95.674 146.705V157.999C95.674 158.133 95.7003 158.266 95.7514 158.39C95.8025 158.513 95.8774 158.626 95.9719 158.72C96.0663 158.815 96.1784 158.89 96.3018 158.942C96.4252 158.993 96.5575 159.019 96.6911 159.019H100.359C100.629 159.019 100.888 158.912 101.079 158.72C101.269 158.529 101.377 158.27 101.377 157.999V157.999ZM112.118 157.999V146.705C112.118 146.435 112.01 146.175 111.82 145.984C111.629 145.793 111.37 145.685 111.101 145.685H107.432C107.162 145.685 106.904 145.793 106.713 145.984C106.522 146.175 106.415 146.435 106.415 146.705V157.999C106.415 158.27 106.522 158.529 106.713 158.72C106.904 158.912 107.162 159.019 107.432 159.019H111.101C111.37 159.019 111.629 158.912 111.82 158.72C112.01 158.529 112.118 158.27 112.118 157.999V157.999ZM122.859 157.999V146.705C122.859 146.435 122.752 146.175 122.561 145.984C122.37 145.793 122.111 145.685 121.842 145.685H118.173C117.904 145.685 117.645 145.793 117.454 145.984C117.263 146.175 117.156 146.435 117.156 146.705V157.999C117.156 158.27 117.263 158.529 117.454 158.72C117.645 158.912 117.904 159.019 118.173 159.019H121.842C122.111 159.019 122.37 158.912 122.561 158.72C122.751 158.529 122.859 158.27 122.859 157.999V157.999ZM90.6354 178.98V167.686C90.6354 167.552 90.6091 167.419 90.558 167.296C90.5069 167.172 90.4319 167.059 90.3375 166.965C90.243 166.87 90.1309 166.795 90.0075 166.743C89.8841 166.692 89.7519 166.666 89.6183 166.666H85.9499C85.8164 166.666 85.6841 166.692 85.5607 166.743C85.4373 166.795 85.3252 166.87 85.2307 166.965C85.1363 167.059 85.0614 167.172 85.0103 167.296C84.9591 167.419 84.9328 167.552 84.9328 167.686V178.98C84.9328 179.114 84.9591 179.246 85.0103 179.37C85.0614 179.494 85.1363 179.606 85.2307 179.701C85.3252 179.796 85.4373 179.871 85.5607 179.922C85.6841 179.974 85.8164 180 85.9499 180H89.6183C89.7519 180 89.8841 179.974 90.0075 179.922C90.1309 179.871 90.243 179.796 90.3375 179.701C90.4319 179.606 90.5069 179.494 90.558 179.37C90.6091 179.246 90.6354 179.114 90.6354 178.98V178.98ZM101.377 178.98V167.686C101.377 167.552 101.35 167.419 101.299 167.296C101.248 167.172 101.173 167.059 101.079 166.965C100.984 166.87 100.872 166.795 100.749 166.743C100.625 166.692 100.493 166.666 100.359 166.666H96.6911C96.5575 166.666 96.4252 166.692 96.3018 166.743C96.1784 166.795 96.0663 166.87 95.9719 166.965C95.8774 167.059 95.8025 167.172 95.7514 167.296C95.7003 167.419 95.674 167.552 95.674 167.686V178.98C95.674 179.114 95.7003 179.246 95.7514 179.37C95.8025 179.494 95.8774 179.606 95.9719 179.701C96.0663 179.796 96.1784 179.871 96.3018 179.922C96.4252 179.974 96.5575 180 96.6911 180H100.359C100.493 180 100.625 179.974 100.749 179.922C100.872 179.871 100.984 179.796 101.079 179.701C101.173 179.606 101.248 179.494 101.299 179.37C101.35 179.246 101.377 179.114 101.377 178.98ZM112.118 178.98V167.686C112.118 167.552 112.091 167.419 112.04 167.296C111.989 167.172 111.914 167.059 111.82 166.965C111.725 166.87 111.613 166.795 111.49 166.743C111.366 166.692 111.234 166.666 111.101 166.666H107.432C107.299 166.666 107.166 166.692 107.043 166.743C106.92 166.795 106.807 166.87 106.713 166.965C106.619 167.059 106.544 167.172 106.493 167.296C106.441 167.419 106.415 167.552 106.415 167.686V178.98C106.415 179.114 106.441 179.246 106.493 179.37C106.544 179.494 106.619 179.606 106.713 179.701C106.807 179.796 106.92 179.871 107.043 179.922C107.166 179.974 107.299 180 107.432 180H111.101C111.234 180 111.366 179.974 111.49 179.922C111.613 179.871 111.725 179.796 111.82 179.701C111.914 179.606 111.989 179.494 112.04 179.37C112.091 179.246 112.118 179.114 112.118 178.98V178.98ZM122.859 178.98V167.686C122.859 167.552 122.832 167.419 122.781 167.296C122.73 167.172 122.655 167.059 122.561 166.965C122.466 166.87 122.354 166.795 122.231 166.743C122.108 166.692 121.975 166.666 121.842 166.666H118.173C118.04 166.666 117.907 166.692 117.784 166.743C117.661 166.795 117.549 166.87 117.454 166.965C117.36 167.059 117.285 167.172 117.234 167.296C117.183 167.419 117.156 167.552 117.156 167.686V178.98C117.156 179.114 117.183 179.246 117.234 179.37C117.285 179.494 117.36 179.606 117.454 179.701C117.549 179.796 117.661 179.871 117.784 179.922C117.907 179.974 118.04 180 118.173 180H121.842C121.975 180 122.108 179.974 122.231 179.922C122.354 179.871 122.466 179.796 122.561 179.701C122.655 179.606 122.73 179.494 122.781 179.37C122.832 179.246 122.859 179.114 122.859 178.98ZM25.1332 136.964V126.798C25.1332 126.554 25.0367 126.321 24.865 126.148C24.6933 125.976 24.4604 125.88 24.2176 125.88H20.9155C20.6727 125.88 20.4399 125.976 20.2682 126.148C20.0965 126.321 20 126.554 20 126.798V136.964C20 137.208 20.0965 137.441 20.2682 137.614C20.4399 137.786 20.6727 137.883 20.9155 137.883H24.2176C24.4604 137.882 24.6932 137.786 24.8649 137.614C25.0366 137.441 25.1331 137.208 25.1332 136.964ZM34.8018 136.964V126.798C34.8018 126.554 34.7053 126.321 34.5336 126.148C34.3619 125.976 34.129 125.88 33.8862 125.88H30.5841C30.3413 125.88 30.1085 125.976 29.9368 126.148C29.7651 126.321 29.6686 126.554 29.6686 126.798V136.964C29.6686 137.208 29.7651 137.441 29.9368 137.614C30.1085 137.786 30.3413 137.883 30.5841 137.883H33.8862C34.129 137.882 34.3618 137.786 34.5335 137.614C34.7052 137.441 34.8017 137.208 34.8018 136.964V136.964ZM44.4704 136.964V126.798C44.4704 126.554 44.3739 126.321 44.2022 126.148C44.0305 125.976 43.7976 125.88 43.5548 125.88H40.2527C40.0099 125.88 39.7771 125.976 39.6054 126.148C39.4337 126.321 39.3372 126.554 39.3372 126.798V136.964C39.3372 137.208 39.4337 137.441 39.6054 137.614C39.7771 137.786 40.0099 137.883 40.2527 137.883H43.5548C43.7976 137.882 44.0304 137.786 44.2021 137.614C44.3738 137.441 44.4703 137.208 44.4704 136.964ZM54.139 136.964V126.798C54.139 126.554 54.0425 126.321 53.8708 126.148C53.6991 125.976 53.4662 125.88 53.2234 125.88H49.9214C49.6785 125.88 49.4457 125.976 49.274 126.148C49.1023 126.321 49.0058 126.554 49.0058 126.798V136.964C49.0058 137.208 49.1023 137.441 49.274 137.614C49.4457 137.786 49.6785 137.883 49.9214 137.883H53.2234C53.4662 137.882 53.699 137.786 53.8707 137.614C54.0424 137.441 54.1389 137.208 54.139 136.964ZM63.808 136.964V126.798C63.808 126.554 63.7115 126.321 63.5398 126.148C63.3681 125.976 63.1352 125.88 62.8924 125.88H59.5903C59.3475 125.88 59.1147 125.976 58.943 126.148C58.7713 126.321 58.6748 126.554 58.6748 126.798V136.964C58.6748 137.208 58.7713 137.441 58.943 137.614C59.1147 137.786 59.3475 137.883 59.5903 137.883H62.8924C63.1352 137.882 63.368 137.786 63.5397 137.614C63.7114 137.441 63.8079 137.208 63.808 136.964ZM25.1332 103.085V92.9183C25.1332 92.6747 25.0367 92.4412 24.865 92.269C24.6933 92.0967 24.4604 92 24.2176 92H20.9155C20.7953 92 20.6763 92.0238 20.5652 92.0699C20.4541 92.116 20.3532 92.1837 20.2682 92.269C20.1831 92.3542 20.1157 92.4554 20.0697 92.5669C20.0237 92.6783 20 92.7977 20 92.9183V103.085C20 103.205 20.0237 103.325 20.0697 103.436C20.1157 103.548 20.1831 103.649 20.2682 103.734C20.3532 103.819 20.4541 103.887 20.5652 103.933C20.6763 103.979 20.7953 104.003 20.9155 104.003H24.2176C24.4604 104.003 24.6932 103.906 24.8649 103.734C25.0366 103.562 25.1331 103.328 25.1332 103.085V103.085ZM34.8018 103.085V92.9183C34.8018 92.6747 34.7053 92.4412 34.5336 92.269C34.3619 92.0967 34.129 92 33.8862 92H30.5841C30.3413 92 30.1085 92.0967 29.9368 92.269C29.7651 92.4412 29.6686 92.6747 29.6686 92.9183V103.085C29.6686 103.205 29.6923 103.325 29.7383 103.436C29.7843 103.548 29.8517 103.649 29.9368 103.734C30.0218 103.819 30.1227 103.887 30.2338 103.933C30.3449 103.979 30.4639 104.003 30.5841 104.003H33.8862C34.129 104.003 34.3618 103.906 34.5335 103.734C34.7052 103.562 34.8017 103.328 34.8018 103.085V103.085ZM44.4704 103.085V92.9183C44.4704 92.6747 44.3739 92.4412 44.2022 92.269C44.0305 92.0967 43.7976 92 43.5548 92H40.2527C40.0099 92 39.7771 92.0967 39.6054 92.269C39.4337 92.4412 39.3372 92.6747 39.3372 92.9183V103.085C39.3372 103.205 39.3609 103.325 39.4069 103.436C39.4529 103.548 39.5203 103.649 39.6054 103.734C39.6904 103.819 39.7913 103.887 39.9024 103.933C40.0135 103.979 40.1325 104.003 40.2527 104.003H43.5548C43.7976 104.003 44.0304 103.906 44.2021 103.734C44.3738 103.562 44.4703 103.328 44.4704 103.085V103.085ZM54.139 103.085V92.9183C54.139 92.6747 54.0425 92.4412 53.8708 92.269C53.6991 92.0967 53.4662 92 53.2234 92H49.9214C49.6785 92 49.4457 92.0967 49.274 92.269C49.1023 92.4412 49.0058 92.6747 49.0058 92.9183V103.085C49.0058 103.205 49.0295 103.325 49.0755 103.436C49.1215 103.548 49.189 103.649 49.274 103.734C49.359 103.819 49.4599 103.887 49.571 103.933C49.6821 103.979 49.8011 104.003 49.9214 104.003H53.2234C53.4662 104.003 53.699 103.906 53.8707 103.734C54.0424 103.562 54.1389 103.328 54.139 103.085V103.085ZM63.808 103.085V92.9183C63.808 92.6747 63.7115 92.4412 63.5398 92.269C63.3681 92.0967 63.1352 92 62.8924 92H59.5903C59.3475 92 59.1147 92.0967 58.943 92.269C58.7713 92.4412 58.6748 92.6747 58.6748 92.9183V103.085C58.6748 103.205 58.6985 103.325 58.7445 103.436C58.7905 103.548 58.8579 103.649 58.943 103.734C59.028 103.819 59.1289 103.887 59.24 103.933C59.3511 103.979 59.4701 104.003 59.5903 104.003H62.8924C63.1352 104.003 63.368 103.906 63.5397 103.734C63.7114 103.562 63.8079 103.328 63.808 103.085V103.085ZM25.1332 155.85V145.684C25.1332 145.44 25.0367 145.207 24.865 145.035C24.6933 144.862 24.4604 144.766 24.2176 144.766H20.9155C20.6727 144.766 20.4399 144.862 20.2682 145.035C20.0965 145.207 20 145.44 20 145.684V155.85C20 156.094 20.0965 156.328 20.2682 156.5C20.4399 156.672 20.6727 156.769 20.9155 156.769H24.2176C24.4604 156.769 24.6932 156.672 24.8649 156.5C25.0366 156.327 25.1331 156.094 25.1332 155.85ZM34.8018 155.85V145.684C34.8018 145.44 34.7053 145.207 34.5336 145.035C34.3619 144.862 34.129 144.766 33.8862 144.766H30.5841C30.3413 144.766 30.1085 144.862 29.9368 145.035C29.7651 145.207 29.6686 145.44 29.6686 145.684V155.85C29.6686 156.094 29.7651 156.328 29.9368 156.5C30.1085 156.672 30.3413 156.769 30.5841 156.769H33.8862C34.129 156.769 34.3618 156.672 34.5335 156.5C34.7052 156.327 34.8017 156.094 34.8018 155.85V155.85ZM44.4704 155.85V145.684C44.4704 145.44 44.3739 145.207 44.2022 145.035C44.0305 144.862 43.7976 144.766 43.5548 144.766H40.2527C40.0099 144.766 39.7771 144.862 39.6054 145.035C39.4337 145.207 39.3372 145.44 39.3372 145.684V155.85C39.3372 156.094 39.4337 156.328 39.6054 156.5C39.7771 156.672 40.0099 156.769 40.2527 156.769H43.5548C43.7976 156.769 44.0304 156.672 44.2021 156.5C44.3738 156.327 44.4703 156.094 44.4704 155.85ZM54.139 155.85V145.684C54.139 145.44 54.0425 145.207 53.8708 145.035C53.6991 144.862 53.4662 144.766 53.2234 144.766H49.9214C49.6785 144.766 49.4457 144.862 49.274 145.035C49.1023 145.207 49.0058 145.44 49.0058 145.684V155.85C49.0058 156.094 49.1023 156.328 49.274 156.5C49.4457 156.672 49.6785 156.769 49.9214 156.769H53.2234C53.4662 156.769 53.699 156.672 53.8707 156.5C54.0424 156.327 54.1389 156.094 54.139 155.85ZM63.808 155.85V145.684C63.808 145.44 63.7115 145.207 63.5398 145.035C63.3681 144.862 63.1352 144.766 62.8924 144.766H59.5903C59.3475 144.766 59.1147 144.862 58.943 145.035C58.7713 145.207 58.6748 145.44 58.6748 145.684V155.85C58.6748 156.094 58.7713 156.328 58.943 156.5C59.1147 156.672 59.3475 156.769 59.5903 156.769H62.8924C63.1352 156.769 63.368 156.672 63.5397 156.5C63.7114 156.327 63.8079 156.094 63.808 155.85ZM157.806 167.878V156.948C157.806 156.31 157.553 155.698 157.103 155.246C156.653 154.795 156.042 154.541 155.406 154.541H150.215C149.578 154.541 148.968 154.795 148.518 155.246C148.068 155.698 147.815 156.31 147.815 156.948V167.878C147.815 168.516 148.068 169.128 148.518 169.579C148.968 170.031 149.578 170.284 150.215 170.284H155.406C156.042 170.284 156.653 170.031 157.103 169.579C157.553 169.128 157.806 168.516 157.806 167.878V167.878ZM175 167.878V156.948C175 156.31 174.747 155.698 174.297 155.246C173.847 154.795 173.237 154.541 172.6 154.541H167.409C166.773 154.541 166.162 154.795 165.712 155.246C165.262 155.698 165.009 156.31 165.009 156.948V167.878C165.009 168.516 165.262 169.128 165.712 169.579C166.162 170.031 166.773 170.284 167.409 170.284H172.6C173.237 170.284 173.847 170.031 174.297 169.579C174.747 169.128 175 168.516 175 167.878V167.878Z" fill="#FFCF53"/>
</svg>
