<svg width="93" height="92" viewBox="0 0 93 92" fill="none" xmlns="http://www.w3.org/2000/svg">
<path d="M46.284 0C71.8447 0 92.5679 20.5895 92.5679 45.9875C92.5679 71.3863 71.8447 91.9749 46.284 91.9749C20.7223 91.9749 0 71.3863 0 45.9875C0 20.5886 20.7223 0 46.284 0Z" fill="#35495E"/>
<path d="M49.9867 18.3949C36.6948 18.3949 25.919 29.1008 25.919 42.3084C25.919 45.8834 26.7142 49.269 28.1295 52.3171L24.8582 55.5666C24.013 56.4063 24.0621 60.662 24.0556 60.7245C24.0186 60.7622 20.078 60.3171 19.2097 61.1789L17.4703 62.9825C16.3632 64.0834 16.615 68.1294 16.5956 68.0604L16.5909 68.066C16.6039 68.0687 12.6096 67.7376 11.7617 68.5783L9.80757 70.5208C8.94113 71.3826 9.1633 75.4442 9.17626 75.435C9.18088 75.4295 5.02736 75.3062 4.59137 75.7026C1.84673 78.1979 0 80.2664 0 80.2664L0.0166622 91.9988C0.0166622 92.0061 11.7839 91.9776 11.7839 91.9776L39.9134 64.0255C43.0709 65.4754 46.5083 66.2249 49.9867 66.2219C63.2785 66.2219 74.0543 55.5132 74.0543 42.3084C74.0543 29.1017 63.2785 18.3949 49.9867 18.3949ZM56.2267 30.794C56.9607 30.6329 57.7206 30.6274 58.4569 30.7777C59.1932 30.9281 59.8894 31.231 60.4999 31.6666C61.1105 32.1022 61.6218 32.6608 62.0005 33.306C62.3792 33.9512 62.6168 34.6684 62.6977 35.411C62.7787 36.1535 62.7012 36.9047 62.4703 37.6154C62.2395 38.3262 61.8604 38.9807 61.3579 39.5361C60.8553 40.0915 60.2406 40.5355 59.5538 40.839C58.8669 41.1425 58.1234 41.2988 57.3717 41.2976C56.5025 41.443 55.6109 41.3799 54.7711 41.1135C53.9314 40.8471 53.1679 40.3852 52.5443 39.7662C51.9219 39.1466 51.4574 38.3883 51.1895 37.5543C50.9216 36.7203 50.858 35.8349 51.004 34.9715C51.2648 33.788 51.9249 32.7285 52.8748 31.9688C53.8246 31.209 55.0073 30.7945 56.2267 30.794V30.794Z" fill="#F0C419"/>
<path d="M61.6983 30.6406C60.3063 29.2582 58.4188 28.4816 56.4506 28.4816C54.4825 28.4816 52.5949 29.2582 51.203 30.6406C49.8121 32.0238 49.0308 33.899 49.0308 35.8542C49.0308 37.8094 49.8121 39.6847 51.203 41.0678C51.892 41.7528 52.71 42.2961 53.6104 42.6668C54.5109 43.0376 55.476 43.2284 56.4506 43.2284C57.4253 43.2284 58.3904 43.0376 59.2908 42.6668C60.1912 42.2961 61.0093 41.7528 61.6983 41.0678C62.3874 40.3832 62.9341 39.5704 63.307 38.6758C63.68 37.7813 63.872 36.8225 63.872 35.8542C63.872 34.8859 63.68 33.9271 63.307 33.0326C62.9341 32.138 62.3874 31.3252 61.6983 30.6406V30.6406ZM59.7062 39.0885C59.2769 39.515 58.7672 39.8533 58.2063 40.084C57.6453 40.3148 57.0441 40.4335 56.437 40.4335C55.8299 40.4334 55.2287 40.3145 54.6679 40.0835C54.107 39.8526 53.5974 39.5142 53.1682 39.0876C52.3013 38.226 51.8144 37.0576 51.8146 35.8393C51.8147 34.621 52.302 33.4527 53.1691 32.5914C53.5982 32.1647 54.1078 31.8263 54.6686 31.5954C55.2294 31.3644 55.8306 31.2456 56.4377 31.2456C57.0448 31.2456 57.6459 31.3644 58.2067 31.5954C58.7676 31.8263 59.2771 32.1647 59.7062 32.5914C60.1358 33.0179 60.4766 33.5243 60.7091 34.0817C60.9416 34.6391 61.0613 35.2366 61.0613 35.8399C61.0613 36.4433 60.9416 37.0408 60.7091 37.5982C60.4766 38.1556 60.1358 38.662 59.7062 39.0885V39.0885ZM35.0498 61.0512C34.321 60.4801 33.6259 59.8678 32.968 59.2172L0.0166016 91.9566V91.9962C0.0166016 91.998 1.76336 91.9962 3.91001 91.9906L35.0498 61.0512V61.0512Z" fill="#F29C1F"/>
<path d="M70.3208 0C59.2941 0 50.1475 7.98526 48.4072 18.4511C48.9329 18.4157 49.4596 18.397 49.9864 18.395C50.9945 18.395 51.985 18.464 52.9597 18.5845C54.5917 10.5366 61.7426 4.4755 70.3208 4.4755C80.1025 4.4755 88.0337 12.3532 88.0337 22.074C88.0337 31.793 80.1062 39.6725 70.3208 39.6725C63.9901 39.6725 58.4518 36.3614 55.3183 31.3984C54.5054 31.5937 53.7616 32.0059 53.1671 32.5904C52.618 33.143 52.2208 33.8264 52.0137 34.5752C56.02 40.3558 62.7238 44.148 70.3208 44.148C82.5898 44.148 92.5371 34.2653 92.5371 22.074C92.5371 9.88363 82.5916 0 70.3208 0Z" fill="#EBECED"/>
<path d="M56.5627 33.1266C56.1145 32.5751 55.6991 31.998 55.3185 31.3984C55.1215 31.4474 54.9277 31.5082 54.7381 31.5805L54.7326 31.5824C54.5557 31.652 54.3829 31.7315 54.2151 31.8206L53.9495 31.9834L53.7069 32.1379C53.5329 32.2667 53.3635 32.4046 53.2043 32.5592L53.1358 32.6263C52.9892 32.7773 52.8531 32.938 52.7285 33.1073L52.5591 33.3612L52.4286 33.5718C52.2521 33.8885 52.1126 34.2243 52.0129 34.5725C52.4304 35.1749 52.8812 35.7498 53.358 36.3071L56.5627 33.1266V33.1266Z" fill="#C8C9CB"/>
</svg>
